<?xml version="1.0" encoding="UTF-8"?>
<svg height="16px" viewBox="0 0 16 16" width="16px" xmlns="http://www.w3.org/2000/svg" xmlns:xlink="http://www.w3.org/1999/xlink">
    <filter id="a" height="100%" width="100%" x="0%" y="0%">
        <feColorMatrix color-interpolation-filters="sRGB" values="0 0 0 0 1 0 0 0 0 1 0 0 0 0 1 0 0 0 1 0"/>
    </filter>
    <mask id="b">
        <g filter="url(#a)">
            <rect fill-opacity="0.499373" height="19.2" width="19.2" x="-1.6" y="-1.6"/>
        </g>
    </mask>
    <clipPath id="c">
        <rect height="152" width="192"/>
    </clipPath>
    <g mask="url(#b)">
        <g clip-path="url(#c)" fill="none" stroke="#241f31" stroke-linecap="round" stroke-linejoin="round" stroke-width="8" transform="matrix(1 0 0 1 -168 -16)">
            <path d="m 92 236 c 0 15.441406 -12.519531 27.960938 -27.960938 27.960938 c -15.441406 0 -27.957031 -12.519532 -27.957031 -27.960938 s 12.515625 -27.960938 27.957031 -27.960938 c 15.441407 0 27.960938 12.519532 27.960938 27.960938 z m 0 0" transform="matrix(1 0 0 1 8 -156)"/>
            <path d="m 48 232 l 16 16 c 4 -18 19.953125 -35.957031 26.816406 -40" transform="matrix(1 0 0 1 8 -156)"/>
        </g>
    </g>
    <g fill="#241f31">
        <path d="m 13.910156 2.003906 c -0.265625 0.023438 -0.507812 0.152344 -0.679687 0.355469 l -4.296875 5.160156 l -1.226563 -1.226562 c -0.390625 -0.390625 -1.023437 -0.390625 -1.414062 0 s -0.390625 1.023437 0 1.414062 l 2 2 c 0.199219 0.199219 0.472656 0.304688 0.75 0.292969 c 0.28125 -0.015625 0.542969 -0.144531 0.726562 -0.359375 l 5 -6 c 0.351563 -0.425781 0.292969 -1.054687 -0.128906 -1.40625 c -0.203125 -0.171875 -0.464844 -0.253906 -0.730469 -0.230469 z m 0 0"/>
        <path d="m 12.097656 0.0078125 c -0.296875 -0.03125 -0.59375 0.0742187 -0.804687 0.2851565 l -1.636719 1.636719 l -5.492188 -0.917969 c -0.292968 -0.046875 -0.59375 0.039062 -0.820312 0.230469 l -2.3125 2 c -0.363281 0.316406 -0.449219 0.84375 -0.210938 1.257812 l 2.042969 3.535156 l -1.757812 3.515625 c -0.160157 0.324219 -0.136719 0.707031 0.0625 1.003907 l 2 3 c 0.351562 0.523437 1.09375 0.597656 1.539062 0.152343 l 1.636719 -1.636719 l 5.492188 0.917969 c 0.347656 0.054688 0.703124 -0.074219 0.929687 -0.34375 l 1.683594 -2 c 0.242187 -0.289062 0.304687 -0.6875 0.15625 -1.03125 l -1.71875 -4.082031 l -1.460938 1.683594 l 1.097657 2.609375 l -0.921876 1.09375 l -5.4375 -0.90625 c -0.320312 -0.050781 -0.644531 0.054687 -0.871093 0.28125 l -1.136719 1.136719 l -1 -1.503907 l 1.738281 -3.476562 c 0.148438 -0.300781 0.140625 -0.660157 -0.03125 -0.949219 l -1.898437 -3.28125 l 1.335937 -1.15625 l 5.535157 0.925781 c 0.320312 0.050781 0.644531 -0.054687 0.871093 -0.28125 l 0.597657 -0.597656 l 1.835937 -2.203125 l -0.308594 -0.460938 c -0.167969 -0.25 -0.4375 -0.4101558 -0.734375 -0.4374995 z m 0 0"/>
        <path d="m 13.910156 2.003906 c -0.265625 0.023438 -0.507812 0.152344 -0.679687 0.355469 l -4.296875 5.160156 l -1.226563 -1.226562 c -0.390625 -0.390625 -1.023437 -0.390625 -1.414062 0 s -0.390625 1.023437 0 1.414062 l 2 2 c 0.199219 0.199219 0.472656 0.304688 0.75 0.292969 c 0.28125 -0.015625 0.542969 -0.144531 0.726562 -0.359375 l 5 -6 c 0.351563 -0.425781 0.292969 -1.054687 -0.128906 -1.40625 c -0.203125 -0.171875 -0.464844 -0.253906 -0.730469 -0.230469 z m 0 0"/>
    </g>
</svg>
