<?xml version="1.0" encoding="UTF-8"?>
<svg height="128px" viewBox="0 0 128 128" width="128px" xmlns="http://www.w3.org/2000/svg" xmlns:xlink="http://www.w3.org/1999/xlink">
    <filter id="a" height="100%" width="100%" x="0%" y="0%">
        <feColorMatrix color-interpolation-filters="sRGB" values="0 0 0 0 1 0 0 0 0 1 0 0 0 0 1 0 0 0 1 0"/>
    </filter>
    <mask id="b">
        <g filter="url(#a)">
            <rect fill-opacity="0.499373" height="153.6" width="153.6" x="-12.8" y="-12.8"/>
        </g>
    </mask>
    <clipPath id="c">
        <rect height="152" width="192"/>
    </clipPath>
    <path d="m 16 8 l -8 20 l 8 24.140625 l -8 13.859375 l 8 18 l -8 16 l 8 20 l 24 -8 l 32 8 l 16 -8 l 24 8 l 8 -20 l -8 -19.910156 l 8 -12.089844 l -8 -20 l 8 -16 l -8 -24 l -24 8 l -32 -8 l -16 8 z m 0 0" fill="#b5835a"/>
    <path d="m 8 28 l 32 -12 l -24 -8 z m 0 0" fill="#b5835a"/>
    <path d="m 16 52 l 24 -36 l -32 12 z m 0 0" fill="#986a44"/>
    <path d="m 88 16 l 32 16 l -8 -24 z m 0 0" fill="#b5835a"/>
    <path d="m 88 16 l 24 32 l 8 -16 z m 0 0" fill="#986a44"/>
    <g fill="#b5835a">
        <path d="m 112 48 v 32 l 8 -12 z m 0 0"/>
        <path d="m 112 80 l -24 -64 l 24 32 z m 0 0"/>
        <path d="m 16 52 l 48 4 l 24 -40 z m 0 0"/>
    </g>
    <path d="m 112 80.089844 l -48 -24.089844 l 24 -40 z m 0 0" fill="#986a44"/>
    <path d="m 8 66 l 56 -10 l -48 -4 z m 0 0" fill="#cdab8f"/>
    <path d="m 16 84 v 36 l -8 -20 z m 0 0" fill="#b5835a"/>
    <path d="m 16 84 l 48 -28 l -56 10 z m 0 0" fill="#b5835a"/>
    <path d="m 16 120 l 24 -8 l -24 -28 z m 0 0" fill="#986a44"/>
    <path d="m 40 112 l 16 -24 l -40 -4 z m 0 0" fill="#b5835a"/>
    <path d="m 72 120 l -16 -32 l -16 24 z m 0 0" fill="#986a44"/>
    <path d="m 56 88 l 8 -32 l -48 28 z m 0 0" fill="#cdab8f"/>
    <path d="m 56 88 l 56 -7.910156 l -48 -24.089844 z m 0 0" fill="#b5835a"/>
    <path d="m 88 112 l -32 -24 l 16 32 z m 0 0" fill="#986a44"/>
    <path d="m 112 120 v -40 l 8 20 z m 0 0" fill="#986a44"/>
    <path d="m 112 120 l -24 -8 l 24 -31.910156 z m 0 0" fill="#986a44"/>
    <path d="m 88 112 l -32 -24 l 56 -7.910156 z m 0 0" fill="#b5835a"/>
    <path d="m 16 52 l 72 -36 l -32 -8 z m 0 0" fill="#cdab8f"/>
    <g mask="url(#b)">
        <g clip-path="url(#c)" fill="none" stroke="#241f31" stroke-linecap="round" stroke-linejoin="round" stroke-width="8" transform="matrix(1 0 0 1 -8 -16)">
            <path d="m 92 236 c 0 15.441406 -12.519531 27.960938 -27.960938 27.960938 c -15.441406 0 -27.957031 -12.519532 -27.957031 -27.960938 s 12.515625 -27.960938 27.957031 -27.960938 c 15.441407 0 27.960938 12.519532 27.960938 27.960938 z m 0 0" transform="matrix(1 0 0 1 8 -156)"/>
            <path d="m 48 232 l 16 16 c 4 -18 19.953125 -35.957031 26.816406 -40" transform="matrix(1 0 0 1 8 -156)"/>
        </g>
    </g>
</svg>
